<?xml version="1.0" standalone="no"?>
<!DOCTYPE svg PUBLIC "-//W3C//DTD SVG 20010904//EN"
 "http://www.w3.org/TR/2001/REC-SVG-20010904/DTD/svg10.dtd">
<svg version="1.0" xmlns="http://www.w3.org/2000/svg"
 width="884.000000pt" height="1018.000000pt" viewBox="0 0 884.000000 1018.000000"
 preserveAspectRatio="xMidYMid meet">

<g transform="translate(0.000000,1018.000000) scale(0.100000,-0.100000)"
fill="#f79617" stroke="none">
<path d="M979 9695 c-32 -17 -97 -117 -127 -195 -202 -521 -316 -1055 -363
-1705 -16 -206 -15 -758 0 -945 30 -366 80 -681 137 -850 41 -123 70 -175 119
-219 80 -69 122 -21 112 129 -3 47 -22 186 -41 310 -74 463 -96 747 -96 1210
0 642 50 1074 186 1610 24 96 58 217 74 267 54 165 42 163 115 17 168 -338
425 -668 688 -887 334 -278 684 -442 1072 -502 130 -21 409 -16 540 8 413 78
854 270 1144 500 44 35 62 45 57 31 -49 -157 -186 -971 -246 -1464 -12 -96
-30 -227 -40 -290 -63 -380 -125 -956 -162 -1495 -17 -249 -17 -1057 0 -1265
66 -812 219 -1438 488 -1998 248 -518 563 -901 942 -1146 171 -111 409 -207
602 -243 134 -25 458 -25 585 0 314 63 578 181 830 370 356 269 601 644 684
1047 70 335 37 684 -96 1030 -203 529 -615 945 -1095 1104 -179 60 -251 71
-458 70 -172 0 -191 -2 -275 -28 -115 -35 -191 -76 -250 -134 -91 -90 -123
-215 -70 -267 14 -15 36 -25 51 -25 16 0 109 16 208 37 161 32 198 36 336 37
219 0 353 -31 544 -125 415 -206 731 -650 823 -1154 19 -105 21 -335 4 -436
-94 -556 -565 -1020 -1179 -1160 -129 -29 -348 -36 -487 -15 -312 48 -584 202
-851 478 -727 755 -1105 2245 -1045 4118 14 417 21 506 72 910 117 926 218
1485 396 2195 55 221 66 277 70 376 5 104 3 120 -16 165 l-22 49 -67 -70 c-46
-48 -83 -101 -120 -170 -54 -104 -120 -197 -194 -276 -227 -240 -685 -469
-1122 -560 -145 -31 -418 -38 -556 -14 -486 81 -948 366 -1294 797 -87 108
-200 275 -316 468 -194 321 -217 345 -291 305z"/>
<path d="M1776 7315 c-134 -48 -175 -210 -80 -315 95 -105 255 -85 322 40 19
36 23 56 20 102 -5 76 -40 127 -109 162 -59 29 -95 32 -153 11z"/>
<path d="M3147 7267 c-155 -49 -195 -237 -74 -344 66 -58 136 -66 216 -27 86
43 126 128 107 229 -8 39 -63 108 -105 129 -40 21 -102 26 -144 13z"/>
</g>
</svg>
